<?xml version="1.0" standalone="no"?>
<!DOCTYPE svg PUBLIC "-//W3C//DTD SVG 20010904//EN"
 "http://www.w3.org/TR/2001/REC-SVG-20010904/DTD/svg10.dtd">
<svg version="1.0" xmlns="http://www.w3.org/2000/svg"
 width="497.000000pt" height="136.000000pt" viewBox="0 0 497.000000 136.000000"
 preserveAspectRatio="xMidYMid meet">

<g transform="translate(0.000000,136.000000) scale(0.100000,-0.100000)"
fill="#000000" stroke="none">
<path d="M3477 1309 c-226 -64 -402 -245 -461 -474 -21 -78 -21 -239 0 -319
49 -190 178 -347 355 -431 125 -59 173 -65 552 -65 l338 0 24 25 c26 25 32 63
15 95 -19 36 -63 40 -405 40 -250 0 -343 3 -376 14 -164 50 -297 180 -344 338
-21 69 -21 217 0 286 48 160 192 298 356 342 23 7 82 12 129 11 138 0 243 -44
343 -144 176 -173 196 -433 51 -652 -29 -44 -35 -59 -29 -84 8 -37 39 -61 79
-61 39 0 85 50 135 150 55 111 75 207 68 334 -15 283 -206 521 -477 595 -99
28 -257 28 -353 0z"/>
<path d="M3375 1000 c-36 -23 -65 -74 -65 -113 0 -40 33 -99 68 -119 37 -22
93 -23 132 -3 38 20 70 74 70 120 0 102 -121 170 -205 115z"/>
<path d="M3795 1002 c-44 -27 -65 -65 -65 -114 0 -125 144 -185 227 -95 42 46
51 94 27 143 -25 49 -62 75 -115 81 -32 3 -52 -1 -74 -15z"/>
<path d="M2212 757 c-23 -25 -28 -66 -12 -97 13 -23 70 -43 103 -35 58 15 83
83 47 128 -18 23 -29 27 -69 27 -37 0 -52 -5 -69 -23z"/>
<path d="M3615 715 c-19 -18 -24 -31 -20 -48 21 -69 115 -59 115 12 0 31 -12
45 -47 55 -17 5 -29 1 -48 -19z"/>
<path d="M3369 577 c-90 -61 -66 -206 40 -238 108 -32 209 89 157 189 -37 72
-129 95 -197 49z"/>
<path d="M3769 561 c-34 -34 -39 -44 -39 -85 0 -64 21 -100 74 -126 57 -27
104 -20 150 24 46 43 54 93 26 152 -26 53 -62 74 -126 74 -41 0 -51 -5 -85
-39z"/>
<path d="M271 550 c-18 -4 -46 -17 -62 -29 -36 -27 -39 -26 -39 4 0 24 -2 25
-70 25 l-70 0 0 -255 0 -255 69 0 69 0 4 152 c4 168 14 204 63 226 36 17 86
15 112 -3 33 -23 43 -76 43 -232 l0 -143 70 0 70 0 0 148 c0 162 11 205 60
229 32 16 90 16 111 0 36 -28 43 -60 47 -219 l4 -158 70 0 70 0 -4 188 c-3
178 -4 189 -28 232 -36 64 -94 94 -180 94 -68 0 -114 -17 -158 -57 l-22 -21
-28 26 c-15 14 -36 30 -48 36 -30 16 -113 22 -153 12z"/>
<path d="M1201 550 c-248 -52 -284 -390 -51 -493 70 -32 181 -29 253 7 203 99
193 383 -15 471 -48 19 -132 26 -187 15z m124 -124 c102 -43 101 -220 -2 -262
-65 -27 -138 -1 -167 61 -35 72 -9 166 54 197 43 22 70 22 115 4z"/>
<path d="M2649 547 c-141 -40 -220 -165 -192 -302 28 -131 133 -209 283 -209
75 0 131 16 178 51 l32 24 -36 42 -37 43 -45 -23 c-52 -26 -107 -29 -156 -9
-35 15 -79 63 -73 80 2 7 70 13 193 16 l189 5 -2 47 c-2 67 -20 115 -62 161
-63 70 -176 101 -272 74z m124 -111 c37 -15 62 -41 71 -73 l7 -23 -125 0 c-81
0 -126 4 -126 10 0 23 29 66 52 77 53 26 77 28 121 9z"/>
<path d="M4685 551 c-36 -9 -74 -28 -97 -49 -17 -14 -18 -13 -18 16 l0 32 -70
0 -70 0 0 -255 0 -255 75 0 75 0 0 150 c0 168 8 198 60 225 66 34 142 9 159
-53 6 -20 11 -101 11 -179 l0 -143 71 0 71 0 -4 194 -3 194 -30 43 c-16 23
-46 50 -65 60 -41 21 -123 31 -165 20z"/>
<path d="M1669 296 l106 -256 76 0 76 0 104 246 c57 136 106 251 107 255 2 5
-28 9 -66 9 l-69 0 -70 -166 c-38 -91 -74 -164 -79 -163 -5 2 -39 75 -75 163
l-65 161 -76 3 -76 3 107 -255z"/>
<path d="M2210 295 l0 -255 70 0 70 0 0 255 0 255 -70 0 -70 0 0 -255z"/>
</g>
</svg>
