<svg width="43" height="42" viewBox="0 0 43 42" fill="none" xmlns="http://www.w3.org/2000/svg">
<path d="M21.5003 42C33.0704 42 42.4498 32.598 42.4498 21C42.4498 9.40202 33.0704 0 21.5003 0C9.93019 0 0.550781 9.40202 0.550781 21C0.550781 32.598 9.93019 42 21.5003 42Z" fill="#F41B3B"/>
<path d="M29.8023 19.5125L18.4546 12.95C17.9309 12.6 17.2326 12.6 16.7088 12.95C16.1851 13.3 15.8359 13.825 15.8359 14.4375V27.475C15.8359 28.0875 16.1851 28.7 16.7088 28.9625C16.9707 29.1375 17.3199 29.225 17.5817 29.225C17.8436 29.225 18.1928 29.1375 18.4546 28.9625L29.715 22.4C30.2388 22.05 30.5879 21.525 30.5879 20.9125C30.5879 20.3 30.326 19.775 29.8023 19.5125Z" fill="white" fill-opacity="0.87"/>
</svg>
